# xmcd CD database file
#
# Track frame offsets:
#	150
#	14857
#	29020
#	50130
#	65506
#	81039
#	100151
#	116276
#	131714
#	148889
#	164186
#	175457
#	189680
#	203929
#	218587
#
# Disc length: 3167 seconds
#
# Revision: 1
# Processed by: cddbd v1.5.1PL0 Copyright (c) Steve Scherf et al.
# Submitted via: CDex 1.51
#
DISCID=ef0c5d0f
DTITLE=Katie Melua - Call Off The Search
DYEAR=2003
DGENRE=Jazz
TTITLE0=Katie Melua - Nine Million Bicycles
TTITLE1=Katie Melua -  Halfway Up The Hindu Kush
TTITLE2=Katie Melua - Blue Shoes
TTITLE3=Katie Melua - Call Off the Search
TTITLE4=Katie Melua - Crawling Up a Hill
TTITLE5=Katie Melua - The Closest Thing to Crazy
TTITLE6=Katie Melua - My Aphrodisiac Is You
TTITLE7=Katie Melua - Learnin' the Blues
TTITLE8=Katie Melua - Blame It on the Moon
TTITLE9=Katie Melua - Belfast (Penguins and Cats)
TTITLE10=Katie Melua -  I Think It's Going to Rain
TTITLE11=Katie Melua - Mockingbird Song
TTITLE12=Katie Melua - Tiger in the Night
TTITLE13=Katie Melua - Faraway Voice
TTITLE14=Katie Melua - Lilac Wine
EXTD=YEAR: 2003
EXTT0=
EXTT1=
EXTT2=
EXTT3=
EXTT4=
EXTT5=
EXTT6=
EXTT7=
EXTT8=
EXTT9=
EXTT10=
EXTT11=
EXTT12=
EXTT13=
EXTT14=
PLAYORDER=
